HIERARCHY
ROOT Hips
{
	OFFSET 0.000000 0.000000 0.000000
	CHANNELS 6 Xposition Yposition Zposition Zrotation Yrotation Xrotation
	JOINT LHipJoint
	{
		OFFSET 0.000000 0.000000 0.000000
		CHANNELS 3 Zrotation Yrotation Xrotation
		JOINT LeftUpLeg
		{
			OFFSET 1.363060 -1.794630 0.839290
			CHANNELS 3 Zrotation Yrotation Xrotation
			JOINT LeftLeg
			{
				OFFSET 2.448110 -6.726130 0.000000
				CHANNELS 3 Zrotation Yrotation Xrotation
				JOINT LeftFoot
				{
					OFFSET 2.562200 -7.039590 0.000000
					CHANNELS 3 Zrotation Yrotation Xrotation
					JOINT LeftToeBase
					{
						OFFSET 0.157640 -0.433110 2.322550
						CHANNELS 3 Zrotation Yrotation Xrotation
						End Site
						{
							OFFSET 0.000000 0.000000 0.000000
						}
					}
				}
			}
		}
	}
	JOINT RHipJoint
	{
		OFFSET 0.000000 0.000000 0.000000
		CHANNELS 3 Zrotation Yrotation Xrotation
		JOINT RightUpLeg
		{
			OFFSET -1.305520 -1.794630 0.839290
			CHANNELS 3 Zrotation Yrotation Xrotation
			JOINT RightLeg
			{
				OFFSET -2.542530 -6.985550 0.000000
				CHANNELS 3 Zrotation Yrotation Xrotation
				JOINT RightFoot
				{
					OFFSET -2.568260 -7.056230 0.000000
					CHANNELS 3 Zrotation Yrotation Xrotation
					JOINT RightToeBase
					{
						OFFSET -0.164730 -0.452590 2.363150
						CHANNELS 3 Zrotation Yrotation Xrotation
						End Site
						{
							OFFSET 0.000000 0.000000 0.000000
						}
					}
				}
			}
		}
	}
	JOINT LowerBack
	{
		OFFSET 0.000000 0.000000 0.000000
		CHANNELS 3 Zrotation Yrotation Xrotation
		JOINT Spine
		{
			OFFSET 0.028270 2.035590 -0.193380
			CHANNELS 3 Zrotation Yrotation Xrotation
			JOINT Spine1
			{
				OFFSET 0.056720 2.048850 -0.042750
				CHANNELS 3 Zrotation Yrotation Xrotation
				JOINT Neck
				{
					OFFSET 0.000000 0.000000 0.000000
					CHANNELS 3 Zrotation Yrotation Xrotation
					JOINT Neck1
					{
						OFFSET -0.054170 1.746240 0.172020
						CHANNELS 3 Zrotation Yrotation Xrotation
						JOINT Head
						{
							OFFSET 0.104070 1.761360 -0.123970
							CHANNELS 3 Zrotation Yrotation Xrotation
							End Site
							{
								OFFSET 0.000000 0.000000 0.000000
							}
						}
					}
				}
				JOINT LeftShoulder
				{
					OFFSET 0.000000 0.000000 0.000000
					CHANNELS 3 Zrotation Yrotation Xrotation
					JOINT LeftArm
					{
						OFFSET 3.362410 1.200890 -0.311210
						CHANNELS 3 Zrotation Yrotation Xrotation
						JOINT LeftForeArm
						{
							OFFSET 4.983000 -0.000000 -0.000000
							CHANNELS 3 Zrotation Yrotation Xrotation
							JOINT LeftHand
							{
								OFFSET 3.483560 -0.000000 -0.000000
								CHANNELS 3 Zrotation Yrotation Xrotation
								JOINT LeftFingerBase
								{
									OFFSET 0.000000 0.000000 0.000000
									CHANNELS 3 Zrotation Yrotation Xrotation
									JOINT LeftHandIndex1
									{
										OFFSET 0.715260 -0.000000 -0.000000
										CHANNELS 3 Zrotation Yrotation Xrotation
										End Site
										{
											OFFSET 0.000000 0.000000 0.000000
										}
									}
								}
								JOINT LThumb
								{
									OFFSET 0.000000 0.000000 0.000000
									CHANNELS 3 Zrotation Yrotation Xrotation
									End Site
									{
										OFFSET 0.000000 0.000000 0.000000
									}
								}
							}
						}
					}
				}
				JOINT RightShoulder
				{
					OFFSET 0.000000 0.000000 0.000000
					CHANNELS 3 Zrotation Yrotation Xrotation
					JOINT RightArm
					{
						OFFSET -3.136600 1.374050 -0.404650
						CHANNELS 3 Zrotation Yrotation Xrotation
						JOINT RightForeArm
						{
							OFFSET -5.241900 -0.000000 -0.000000
							CHANNELS 3 Zrotation Yrotation Xrotation
							JOINT RightHand
							{
								OFFSET -3.444170 -0.000000 -0.000000
								CHANNELS 3 Zrotation Yrotation Xrotation
								JOINT RightFingerBase
								{
									OFFSET 0.000000 0.000000 0.000000
									CHANNELS 3 Zrotation Yrotation Xrotation
									JOINT RightHandIndex1
									{
										OFFSET -0.622530 -0.000000 -0.000000
										CHANNELS 3 Zrotation Yrotation Xrotation
										End Site
										{
											OFFSET 0.000000 0.000000 0.000000
										}
									}
								}
								JOINT RThumb
								{
									OFFSET 0.000000 0.000000 0.000000
									CHANNELS 3 Zrotation Yrotation Xrotation
									End Site
									{
										OFFSET 0.000000 0.000000 0.000000
									}
								}
							}
						}
					}
				}
			}
		}
	}
}
MOTION
Frames: 9
Frame Time: 0.008333
-5.424116 10.221587 -21.697054 10.752608 15.503918 -11.620413 -3.460971 1.212047 2.873075 -7.022680 0.049734 33.754452 0.235003 -1.719385 -24.498646 2.099793 8.101664 -4.945155 -2.163826 -6.076454 -9.816039 6.071384 -1.455346 -3.771339 -10.920740 -9.382712 3.270766 1.939050 -10.976532 15.014746 3.289128 -5.652332 29.216211 0.358630 0.675601 -16.176403 5.930159 0.742680 3.444879 1.702097 1.676337 2.465337 0.786260 0.985934 9.783689 -2.218841 -0.819809 -0.806702 1.194501 1.262316 7.387280 2.670995 2.592273 2.591705 -0.285632 1.270747 0.251668 -27.024397 12.127110 7.640386 4.454188 -2.959456 -0.136411 0.416842 0.484939 2.100289 8.552414 6.739464 1.898647 -3.513153 0.000000 0.000000 22.873205 27.175327 10.118837 1.803396 -2.870753 0.498018 46.457077 4.711425 22.733112 -27.530050 12.808494 -2.311310 -1.948453 0.170320 -7.236296 -39.316555 57.543171 -43.471588 3.176661 0.000000 0.000000 26.120205 -18.483839 8.598824
-5.417127 10.259120 -21.812944 10.819592 15.414919 -11.668173 -3.476103 1.195635 3.030084 -7.210649 0.056126 33.949341 0.007955 -1.942258 -25.757246 2.008113 8.006907 -4.787011 -2.190574 -6.293905 -9.891251 5.975083 -1.488554 -3.857190 -11.325181 -9.618336 2.909887 2.145183 -10.847829 14.268427 3.239709 -5.720549 29.640097 0.339040 0.649865 -16.823631 5.826304 0.791730 3.541384 1.665165 1.666841 2.541567 0.819693 0.973944 9.777573 -2.191220 -0.802520 -0.836224 1.218133 1.291736 7.492514 2.636734 2.577354 2.674812 -0.254353 1.287129 0.258324 -27.314112 12.257901 7.601018 4.426742 -2.905320 -0.123905 0.414109 0.483815 2.201914 8.680161 6.777738 1.889482 -3.534907 0.000000 0.000000 23.022186 27.348953 10.274489 1.913183 -2.888106 0.485054 46.742168 4.730475 22.748352 -27.591862 12.991032 -2.208045 -1.924525 0.154904 -7.263447 -38.905453 57.069340 -43.547726 3.203927 0.000000 0.000000 25.069849 -19.019674 9.053857
-5.405741 10.309417 -21.874689 10.899006 15.342583 -11.682019 -3.464780 1.188621 3.201634 -7.368446 0.089974 34.204021 -0.203780 -2.121084 -26.907784 1.923160 7.977039 -4.572917 -2.208048 -6.481909 -9.876461 6.007048 -1.472002 -3.870373 -11.547490 -9.718006 2.715895 2.372519 -10.664422 13.659147 3.225637 -5.658045 30.193615 0.337682 0.676674 -17.291035 5.754258 0.847157 3.653431 1.636268 1.672372 2.629041 0.859255 0.967065 9.790336 -2.143994 -0.776141 -0.846095 1.251722 1.324333 7.607790 2.610249 2.567282 2.771094 -0.209146 1.316850 0.267376 -27.548626 12.409120 7.612703 4.414121 -2.838664 -0.107768 0.412991 0.486096 2.365149 8.837387 6.852037 1.898491 -3.555222 0.000000 0.000000 23.222017 27.587055 10.486492 2.028550 -2.903922 0.470526 47.009525 4.744428 22.747036 -27.662962 13.157121 -2.123945 -1.901790 0.135320 -7.323036 -38.652988 56.444832 -43.821491 3.225282 0.000000 0.000000 23.846037 -19.672541 9.287419
-5.392242 10.362147 -21.920788 10.984510 15.284434 -11.673892 -3.439340 1.187116 3.377688 -7.514856 0.132910 34.507622 -0.403379 -2.284252 -28.001667 1.844666 7.986838 -4.289498 -2.219366 -6.656772 -9.824368 6.044280 -1.454074 -3.861115 -11.716991 -9.802371 2.548368 2.603350 -10.466128 13.095143 3.218782 -5.561870 30.792234 0.345359 0.728363 -17.707653 5.697799 0.913008 3.795040 1.615088 1.690058 2.735908 0.911076 0.967870 9.832482 -2.073519 -0.733980 -0.829859 1.296732 1.372919 7.746985 2.598012 2.565411 2.885291 -0.144540 1.361762 0.280076 -27.701874 12.588516 7.695117 4.420600 -2.746867 -0.085310 0.414142 0.493344 2.592847 9.029415 6.973751 1.929569 -3.571645 0.000000 0.000000 23.496984 27.893419 10.763441 2.150420 -2.915204 0.456583 47.288162 4.764001 22.751030 -27.728010 13.326238 -2.039704 -1.878784 0.115635 -7.383507 -38.397598 55.815102 -44.108013 3.246246 0.000000 0.000000 22.618322 -20.333733 9.492571
-5.379600 10.416414 -21.961647 11.062712 15.220057 -11.660835 -3.410477 1.180768 3.546135 -7.681654 0.161460 34.845036 -0.580120 -2.360710 -28.798956 1.786404 8.078057 -3.893508 -2.212115 -6.786253 -9.738682 6.041558 -1.443218 -3.841823 -11.910025 -9.821005 2.434814 2.807483 -10.267540 12.588661 3.214727 -5.487105 31.322300 0.348165 0.764148 -18.092993 5.653851 0.977432 3.923787 1.591344 1.702830 2.825024 0.954779 0.967150 9.854234 -2.022628 -0.705092 -0.827012 1.335438 1.405604 7.865413 2.575525 2.556739 2.983527 -0.097118 1.393201 0.289446 -27.942234 12.737377 7.707879 4.406876 -2.686930 -0.070467 0.413262 0.495215 2.750614 9.181227 7.044075 1.938842 -3.592888 0.000000 0.000000 23.713808 28.129446 10.986395 2.272128 -2.922102 0.443289 47.580273 4.781629 22.749544 -27.791864 13.493476 -1.951188 -1.853957 0.097043 -7.432145 -38.061100 55.217781 -44.284138 3.269995 0.000000 0.000000 21.458300 -20.958803 9.687006
-5.375332 10.463094 -22.026680 11.130732 15.125446 -11.680992 -3.408288 1.155480 3.691062 -7.877165 0.163293 35.116077 -0.777630 -2.521179 -29.805826 1.703578 8.093777 -3.634084 -2.227267 -7.042408 -10.148216 5.926138 -1.472675 -3.852562 -12.228018 -9.970270 2.120950 2.976130 -10.081537 12.001682 3.183794 -5.554286 31.631859 0.335813 0.765323 -18.489067 5.612136 1.028946 4.012683 1.557468 1.703246 2.894383 0.985608 0.963122 9.859219 -1.986846 -0.686725 -0.843973 1.366867 1.422829 7.963591 2.543314 2.542251 3.070820 -0.061566 1.415145 0.296536 -28.234722 12.867809 7.669633 4.382190 -2.643903 -0.059489 0.411498 0.495546 2.878026 9.315704 7.082236 1.935193 -3.617137 0.000000 0.000000 23.867781 28.248070 11.103785 2.379067 -2.937608 0.424773 47.790787 4.777772 22.703012 -27.894737 13.625150 -1.887477 -1.830610 0.075288 -7.509353 -37.837452 54.549648 -44.550282 3.291381 0.000000 0.000000 20.256304 -21.603195 9.884477
-5.373844 10.504863 -22.102884 11.197820 15.038809 -11.686592 -3.398753 1.138036 3.849328 -8.025252 0.194926 35.473911 -0.968938 -2.694180 -30.811855 1.616703 8.128195 -3.307224 -2.231855 -7.285826 -10.225347 5.934438 -1.445457 -3.778024 -12.372995 -9.965161 1.993023 3.161906 -9.876319 11.529716 3.167773 -5.588957 31.936733 0.331922 0.791849 -18.790138 5.582188 1.077937 4.088553 1.521139 1.705241 2.957091 1.009835 0.959471 9.857369 -1.961372 -0.675791 -0.868756 1.394862 1.431548 8.052182 2.507844 2.525535 3.153319 -0.031253 1.433614 0.302695 -28.548170 12.991464 7.621557 4.353823 -2.609895 -0.050493 0.409329 0.494401 2.983484 9.438063 7.101144 1.924285 -3.643272 0.000000 0.000000 23.987949 28.322744 11.189938 2.483462 -2.954135 0.404914 47.981407 4.768446 22.647980 -27.983633 13.765932 -1.822063 -1.807160 0.053229 -7.588367 -37.627453 53.860382 -44.850357 3.311473 0.000000 0.000000 19.069427 -22.243151 10.058670
-5.371373 10.545409 -22.177916 11.266983 14.962230 -11.669476 -3.376084 1.130284 4.014037 -8.157259 0.242674 35.875969 -1.150737 -2.831469 -31.712919 1.536241 8.185804 -2.947202 -2.233186 -7.535163 -10.329581 5.933906 -1.416788 -3.677172 -12.494095 -9.955389 1.885588 3.342527 -9.658736 11.108912 3.159106 -5.565499 32.314411 0.338354 0.843725 -19.032738 5.570140 1.133620 4.181853 1.492096 1.717652 3.036773 1.044135 0.962048 9.879401 -1.918719 -0.652518 -0.873205 1.431410 1.452969 8.159162 2.482461 2.514785 3.248165 0.012978 1.463018 0.311517 -28.800486 13.136722 7.629109 4.340352 -2.556888 -0.036729 0.408712 0.496613 3.129091 9.583539 7.152976 1.927852 -3.666692 0.000000 0.000000 24.155575 28.431486 11.313328 2.591054 -2.968393 0.385449 48.179523 4.763350 22.597775 -28.067003 13.910853 -1.755392 -1.783466 0.031362 -7.666470 -37.406963 53.176590 -45.144711 3.331785 0.000000 0.000000 17.911762 -22.867880 10.254007
-5.362487 10.598786 -22.201283 11.337291 14.889646 -11.650023 -3.354629 1.104422 4.153461 -8.339420 0.247714 36.223698 -1.291837 -2.861575 -32.212845 1.521941 8.529852 -2.313201 -2.186414 -7.707348 -10.574467 5.870094 -1.401164 -3.546506 -12.532949 -9.854708 1.836171 3.484811 -9.449246 10.732880 3.143019 -5.641538 32.492798 0.330941 0.856535 -19.281309 5.562676 1.183502 4.265639 1.464303 1.726120 3.107006 1.074380 0.966727 9.899462 -1.885928 -0.636246 -0.883789 1.465115 1.468665 8.258221 2.453022 2.501198 3.335045 0.048084 1.487427 0.318640 -29.094908 13.266617 7.602474 4.316659 -2.519915 -0.026844 0.407134 0.496626 3.243582 9.712885 7.187366 1.921813 -3.692026 0.000000 0.000000 24.319334 28.541626 11.437301 2.699889 -2.978291 0.367959 48.406097 4.770728 22.562092 -28.130919 14.071480 -1.689760 -1.759867 0.009711 -7.745578 -37.182808 52.504265 -45.411419 3.352868 0.000000 0.000000 16.718966 -23.513184 10.360449
